# xmcd CD database file
#
# Track frame offsets:
#	150
#	7618
#	19136
#	27965
#	40599
#	45565
#	57275
#	72970
#	81826
#	91558
#	104400
#	112507
#	131843
#	138632
#	142022
#
# Disc length: 2004 seconds
#
# Revision: 0
# Processed by: cddbd v1.4PL0 Copyright (c) Steve Scherf et al.
# Submitted via: CDex 1.50Beta7
#
DISCID=b807d20f
DTITLE=Ofays - Keep The Change
DYEAR=2002
DGENRE=Country
TTITLE0=That Box
TTITLE1=This Pile
TTITLE2=So Formal
TTITLE3=Pine Box
TTITLE4=10 Directions
TTITLE5=Meaner
TTITLE6=Strong Song
TTITLE7=Jail
TTITLE8=Mom's Dying Words
TTITLE9=The Panic
TTITLE10=Pistol
TTITLE11=The Assholes
TTITLE12=Of the Things
TTITLE13=XXSPACERXX
TTITLE14=BONUS dubmix
EXTD=YEAR: 2002
EXTT0=
EXTT1=
EXTT2=
EXTT3=
EXTT4=
EXTT5=
EXTT6=
EXTT7=
EXTT8=
EXTT9=
EXTT10=
EXTT11=
EXTT12=
EXTT13=
EXTT14=
PLAYORDER=
